<?xml version="1.0" standalone="no"?>
<!DOCTYPE svg PUBLIC "-//W3C//DTD SVG 20010904//EN"
 "http://www.w3.org/TR/2001/REC-SVG-20010904/DTD/svg10.dtd">
<svg version="1.0" xmlns="http://www.w3.org/2000/svg"
 width="655.000000pt" height="225.000000pt" viewBox="0 0 655.000000 225.000000"
 preserveAspectRatio="xMidYMid meet">

<g transform="translate(0.000000,225.000000) scale(0.100000,-0.100000)"
fill="#000000" stroke="none">
<path d="M1040 2136 c0 -32 -7 -71 -16 -89 -19 -38 -83 -107 -99 -107 -13 0
-35 42 -35 65 0 28 -18 15 -53 -37 -65 -100 -91 -201 -66 -265 42 -111 220
-161 354 -98 76 37 106 82 113 173 7 111 -29 210 -123 332 -70 91 -75 93 -75
26z"/>
<path d="M3480 1652 c0 -186 -3 -342 -6 -345 -4 -4 -22 7 -40 23 -19 16 -69
46 -111 67 -75 35 -83 37 -200 41 -135 5 -176 -4 -290 -60 -152 -76 -273 -240
-324 -439 -20 -77 -17 -258 5 -338 34 -126 82 -209 170 -297 109 -108 206
-157 356 -179 95 -14 113 -14 204 0 268 43 460 219 526 483 18 72 20 118 20
730 l0 652 -155 0 -155 0 0 -338z m-208 -527 c228 -111 279 -435 98 -616 -71
-71 -136 -100 -226 -101 -134 -2 -242 73 -307 211 -29 60 -32 75 -31 161 0 86
3 103 31 162 88 188 269 264 435 183z"/>
<path d="M183 1734 c-2 -6 -2 -279 0 -605 3 -588 3 -595 26 -664 44 -132 122
-224 231 -273 74 -34 183 -55 250 -50 l45 3 3 143 3 142 -45 0 c-77 0 -144 39
-179 103 -21 40 -22 55 -25 324 l-3 282 116 3 116 3 2 133 2 132 -105 0 c-58
0 -111 4 -117 8 -9 6 -13 55 -15 165 l-3 158 -149 2 c-102 1 -150 -1 -153 -9z"/>
<path d="M4910 1548 c0 -2 122 -322 269 -713 l269 -710 238 0 237 0 259 695
c142 382 261 703 264 713 5 16 -10 17 -214 17 l-220 0 -25 -82 c-15 -46 -86
-278 -159 -515 -73 -238 -135 -433 -138 -433 -3 0 -77 232 -165 515 l-160 515
-227 0 c-126 0 -228 -1 -228 -2z"/>
<path d="M1760 1439 c-36 -4 -92 -18 -125 -32 -161 -64 -258 -169 -316 -342
-24 -69 -24 -75 -24 -495 l0 -425 152 -2 152 -2 3 412 c3 402 4 413 25 453 25
48 83 101 129 120 35 15 139 19 193 8 40 -8 113 -73 137 -121 17 -35 19 -73
24 -453 l5 -415 153 -2 152 -2 0 414 c0 334 -3 427 -15 482 -51 228 -218 376
-454 403 -95 11 -98 11 -191 -1z"/>
<path d="M4400 1440 c-226 -29 -440 -210 -518 -436 -11 -33 -25 -97 -32 -145
-34 -235 90 -508 290 -637 195 -125 452 -141 660 -40 139 68 257 203 295 335
l6 23 -163 0 -164 0 -37 -44 c-22 -26 -60 -56 -94 -73 -51 -25 -69 -28 -153
-28 -78 0 -103 4 -141 23 -59 29 -129 89 -129 110 0 13 33 31 118 66 64 27
135 57 157 67 107 47 334 143 365 154 19 7 60 24 90 38 30 14 79 35 108 47 28
12 52 27 52 32 0 32 -35 138 -63 189 -101 186 -262 295 -472 319 -98 11 -94
11 -175 0z m240 -294 c50 -27 110 -76 110 -90 0 -11 -16 -20 -105 -57 -106
-43 -374 -157 -427 -180 -37 -17 -72 -28 -77 -25 -15 10 1 98 29 161 33 74 79
128 146 171 62 40 76 43 194 40 69 -2 104 -7 130 -20z"/>
<path d="M844 1405 c-2 -5 -3 -291 -2 -635 l3 -625 153 0 152 0 0 633 1 634
-152 1 c-93 1 -153 -2 -155 -8z"/>
</g>
</svg>
